<?xml version="1.0" encoding="UTF-8" standalone="no"?>
<!-- Created with Inkscape (http://www.inkscape.org/) -->

<svg
   width="300"
   height="100"
   viewBox="0 0 300 100"
   version="1.1"
   id="svg1"
   sodipodi:docname="intygande.svg"
   inkscape:version="1.3.2 (091e20e, 2023-11-25, custom)"
   xmlns:inkscape="http://www.inkscape.org/namespaces/inkscape"
   xmlns:sodipodi="http://sodipodi.sourceforge.net/DTD/sodipodi-0.dtd"
   xmlns="http://www.w3.org/2000/svg"
   xmlns:svg="http://www.w3.org/2000/svg">
  <sodipodi:namedview
     id="namedview1"
     pagecolor="#505050"
     bordercolor="#eeeeee"
     borderopacity="1"
     inkscape:showpageshadow="0"
     inkscape:pageopacity="0"
     inkscape:pagecheckerboard="0"
     inkscape:deskcolor="#505050"
     showgrid="false"
     inkscape:zoom="3.0033333"
     inkscape:cx="150"
     inkscape:cy="49.944506"
     inkscape:window-width="1920"
     inkscape:window-height="974"
     inkscape:window-x="-11"
     inkscape:window-y="-11"
     inkscape:window-maximized="1"
     inkscape:current-layer="layer1" />
  <defs
     id="defs1" />
  <g
     id="layer1">
    <path
       style="fill:#fdfdfd;fill-opacity:1;stroke:#000000;stroke-width:4;stroke-opacity:1;stroke-linecap:round;stroke-linejoin:round"
       d="M 63.895952,38.929791 30.742392,49.999999 34.359144,86.851754 111.21512,85.64617 107.59837,49.999999 84.692276,36.623968 Z"
       id="path19" />
    <path
       style="fill:#cccccc;fill-opacity:1;stroke:#000000;stroke-width:4;stroke-opacity:1;stroke-linecap:round;stroke-linejoin:round"
       d="m 219.863,48.941816 c -8.17964,2.655725 -77.96449,-4.897074 -77.96449,-4.897074 l -14.76841,-1.50698 -1.20558,4.520941 -28.63262,2.078035 c 0,0 4.52094,12.682103 5.12373,10.576463 0.60279,-2.105639 29.83821,0 29.83821,0 l 3.01396,8.744618 77.05267,0.904186 v 0"
       id="path17" />
    <path
       style="fill:#cccccc;fill-opacity:1;stroke:#000000;stroke-width:4;stroke-opacity:1;stroke-linecap:round;stroke-linejoin:round"
       d="m 213.37437,15.504789 c -4.93904,1.205584 -15.78929,17.179572 -15.78929,17.179572 l 10.85025,3.518509 13.67487,13.773587 16.76613,2.298644 7.8363,-29.235412 c 0,0 -11.828,-15.0698002 -16.01077,-15.0698002 -4.18277,0 -17.32749,7.5349002 -17.32749,7.5349002 z"
       id="path16" />
    <path
       style="fill:#cccccc;fill-opacity:1;stroke:#000000;stroke-width:4;stroke-opacity:1;stroke-linecap:round;stroke-linejoin:round"
       d="m 191.18411,55.308918 c 0,0 9.94606,37.611028 12.05584,37.611028 2.10977,0 74.44481,-19.828665 74.44481,-19.828665 L 260.80658,32.704218 Z"
       id="path12" />
    <path
       style="fill:#cccccc;fill-opacity:1;stroke:#000000;stroke-width:4;stroke-opacity:1;stroke-linecap:round;stroke-linejoin:round"
       d="m 255.83355,47.510796 c 0,0 1.20558,-24.413076 3.01396,-24.413076 1.80838,0 19.28934,22.226955 19.28934,22.226955 l -17.78236,15.146149 z"
       id="path13" />
    <path
       style="fill:#fdfdfd;fill-opacity:1;stroke:#000000;stroke-width:4;stroke-opacity:1;stroke-linecap:round;stroke-linejoin:round"
       d="m 209.30651,58.662448 6.02792,21.399115"
       id="path14" />
    <path
       style="fill:none;fill-opacity:1;stroke:#000000;stroke-width:4;stroke-opacity:1;stroke-linecap:round;stroke-linejoin:round"
       d="m 224.07492,55.045696 5.12373,19.289343 10.54886,-4.973034 c 0,0 5.42513,-3.043625 2.10977,-11.241833 -3.31535,-8.198208 -17.78236,-3.074476 -17.78236,-3.074476 z"
       id="path15" />
    <path
       style="fill:#fdfdfd;fill-opacity:1;stroke:#000000;stroke-width:4;stroke-opacity:1;stroke-linecap:round;stroke-linejoin:round"
       d="m 49.428944,20.688573 c 0,0 12.05584,26.522848 13.261424,26.824244 1.205584,0.301396 20.193532,1.71767 20.796324,-2.305823 0.602792,-4.023493 3.918147,-12.572353 3.918147,-16.983521 0,-4.411168 -6.932107,-19.5389999 -6.932107,-19.5389999 H 56.059656 Z"
       id="path18" />
    <path
       style="fill:#fdfdfd;fill-opacity:1;stroke:#000000;stroke-width:4;stroke-opacity:1;stroke-linecap:round;stroke-linejoin:round"
       d="m 57.433158,35.195967 c 0,0 12.960028,9.04188 17.028874,1.152911 4.068846,-7.888968 4.068846,-7.888968 4.068846,-7.888968"
       id="path20" />
    <path
       style="fill:none;fill-opacity:1;stroke:#000000;stroke-width:4;stroke-opacity:1;stroke-linecap:round;stroke-linejoin:round"
       d="m 215.27276,40.520051 c 0,0 8.96586,-1.506324 11.97982,-8.526425 3.01396,-7.020101 -0.30139,-7.020101 -0.30139,-7.020101"
       id="path21" />
  </g>
</svg>
