<?xml version="1.0" encoding="UTF-8" standalone="no"?>
<!-- Created with Inkscape (http://www.inkscape.org/) -->

<svg
   width="300"
   height="100"
   viewBox="0 0 300 100"
   version="1.1"
   id="svg1"
   sodipodi:docname="rostmottagare.svg"
   inkscape:version="1.3.2 (091e20e, 2023-11-25, custom)"
   xmlns:inkscape="http://www.inkscape.org/namespaces/inkscape"
   xmlns:sodipodi="http://sodipodi.sourceforge.net/DTD/sodipodi-0.dtd"
   xmlns="http://www.w3.org/2000/svg"
   xmlns:svg="http://www.w3.org/2000/svg">
  <sodipodi:namedview
     id="namedview1"
     pagecolor="#505050"
     bordercolor="#eeeeee"
     borderopacity="1"
     inkscape:showpageshadow="0"
     inkscape:pageopacity="0"
     inkscape:pagecheckerboard="0"
     inkscape:deskcolor="#505050"
     inkscape:zoom="3.0033333"
     inkscape:cx="150"
     inkscape:cy="49.944506"
     inkscape:window-width="1920"
     inkscape:window-height="974"
     inkscape:window-x="-11"
     inkscape:window-y="-11"
     inkscape:window-maximized="1"
     inkscape:current-layer="layer1" />
  <defs
     id="defs1" />
  <g
     id="layer1">
    <path
       style="fill:#fdfdfd;fill-opacity:1;stroke:#000000;stroke-width:2.68006;stroke-linecap:round;stroke-linejoin:round;stroke-opacity:1"
       d="m 119.51107,23.566575 -22.213417,7.417217 1.820489,41.216771 57.595108,-1.677066 -7.92086,-39.539705 -15.34745,-8.962155 z"
       id="path19" />
    <path
       style="fill:#cccccc;fill-opacity:1;stroke:#000000;stroke-width:4;stroke-linecap:round;stroke-linejoin:round;stroke-opacity:1"
       d="m 180.61826,51.392437 -35.62012,-15.61091 -12.18996,1.873064 3.24924,10.544168 40.38705,22.001907 4.17379,-18.808229 v 0"
       id="path24" />
    <path
       style="fill:#fdfdfd;fill-opacity:1;stroke:#000000;stroke-width:2.68006;stroke-linecap:round;stroke-linejoin:round;stroke-opacity:1"
       d="m 109.81794,11.344668 c 0,0 8.07761,17.770732 8.88537,17.972672 0.80776,0.20194 13.52999,1.150866 13.93387,-1.544938 0.40388,-2.695805 2.62522,-8.423678 2.62522,-11.379231 0,-2.955553 -4.64462,-13.0914419 -4.64462,-13.0914419 h -16.35716 z"
       id="path18" />
    <path
       style="fill:#fdfdfd;fill-opacity:1;stroke:#000000;stroke-width:2.68006;stroke-linecap:round;stroke-linejoin:round;stroke-opacity:1"
       d="m 115.18089,21.064854 c 0,0 8.68343,6.058204 11.40962,0.772468 2.72619,-5.285734 2.72619,-5.285734 2.72619,-5.285734"
       id="path20" />
    <path
       style="fill:#fdfdfd;fill-opacity:1;stroke:#000000;stroke-width:4;stroke-linecap:round;stroke-linejoin:round;stroke-opacity:1"
       d="m 48.733537,11.982482 25.92005,5.726524 7.5349,19.882828 -9.04188,2.72187 -6.02792,17.43265 c 0,0 -29.8382,3.1106 -30.44099,1.5553 -0.60279,-1.5553 -7.8363,-36.83325 -6.32932,-36.83325 1.50698,0 18.38516,-10.485922 18.38516,-10.485922 z"
       id="path21" />
    <path
       style="fill:#cccccc;fill-opacity:1;stroke:#000000;stroke-width:4;stroke-linecap:round;stroke-linejoin:round;stroke-opacity:1"
       d="m 199.77978,9.5895849 -25.92005,5.7265241 -7.5349,19.882828 9.04188,2.72187 6.02792,17.43265 c 0,0 29.8382,3.1106 30.44099,1.5553 0.60279,-1.5553 7.8363,-36.83325 6.32932,-36.83325 -1.50698,0 -18.38516,-10.4859221 -18.38516,-10.4859221 z"
       id="path21-1" />
    <path
       style="fill:#fdfdfd;fill-opacity:1;stroke:#000000;stroke-width:4;stroke-linecap:round;stroke-linejoin:round;stroke-opacity:1"
       d="m 10.154848,96.008494 c 0,-7.17003 13.066669,-40.03742 12.988149,-40.81132 -0.07853,-0.7739 24.98775,-9.18868 24.98775,-9.18868 l 49.42894,20.82806 8.439093,29.17194 z"
       id="path22" />
    <path
       style="fill:#cccccc;fill-opacity:1;stroke:#000000;stroke-width:4;stroke-linecap:round;stroke-linejoin:round;stroke-opacity:1"
       d="m 176.2709,57.746354 -86.199251,3.66507 v 5.605569 h -22.19894 l 6.827745,12.779586 18.686551,1.808376 2.510109,3.918148 75.012736,-2.411168 -4.58501,12.896557 90.4188,-6.567241 -26.52285,-43.432759 -45.25516,-0.969971 z"
       id="path23" />
    <path
       style="fill:none;fill-opacity:1;stroke:#000000;stroke-width:4;stroke-linecap:round;stroke-linejoin:round;stroke-opacity:1"
       d="m 192.4067,23.128319 c 0,0 8.78957,14.477774 -2.70444,16.193989 -11.49401,1.716215 -11.49401,1.716215 -11.49401,1.716215 v 0"
       id="path25" />
    <path
       style="fill:#fdfdfd;fill-opacity:1;stroke:#000000;stroke-width:4;stroke-linecap:round;stroke-linejoin:round;stroke-opacity:1"
       d="m 57.511999,27.200896 c 0,0 -8.78957,14.477774 2.70444,16.193989 11.49401,1.716215 11.49401,1.716215 11.49401,1.716215 v 0"
       id="path25-8" />
  </g>
</svg>
